# xmcd
#
# Track frame offsets:
#	150
#	24431
#	43923
#	66282
#	87555
#	103715
#	124471
#	142085
#	160261
#	183562
#	204569
#	223771
#	240607
#	259800
#	274841
#
# Disc length: 3973 seconds
#
# Revision: 0
# Processed by: cddbd v1.4PL0 Copyright (c) Steve Scherf et al.
# Submitted via: EasyCDDAExtractor 4.6.9.1
#
DISCID=ef0f830f
DTITLE=Tim McGraw - Tim McGraw And The Dance Hall Doctors
DYEAR=2002
DGENRE=Country
TTITLE0=Comfort Me
TTITLE1=Tickin' Away
TTITLE2=Home
TTITLE3=Red Ragtop
TTITLE4=That's Why God Made Mexico
TTITLE5=Watch The Wind Blow Away
TTITLE6=Illegal
TTITLE7=Sleep Tonight
TTITLE8=I Know How To Love You Well
TTITLE9=Sing Me Home
TTITLE10=She's My Kind Of Rain
TTITLE11=Who Are They
TTITLE12=Real Good Man
TTITLE13=All We Ever Did
TTITLE14=Tiny Dancer
EXTD=Curb Records
EXTT0=
EXTT1=
EXTT2=
EXTT3=
EXTT4=
EXTT5=
EXTT6=
EXTT7=
EXTT8=
EXTT9=
EXTT10=
EXTT11=
EXTT12=
EXTT13=
EXTT14=
PLAYORDER=
